# xmcd
# 
# Track frame offsets:
#     182
#     32785
#     46152
#     80357
#     82785
#     104525
#     139567
#     178527
# 
# Disc length: 2720
# 
# Revision: 5
# Processed by: cddbd v1.5.2PL0 Copyright (c) Steve Scherf et al.
# Submitted via: BonkEnc v1.0.15
# 
DISCID=560a9e08
DTITLE=Gioacchino Rossini - Il Barbiere di Siliglia (Academy of St. Martin-in-the-Fields, Neville Marriner) [CD1)
DYEAR=1983
DGENRE=Opera
TTITLE0=Il barbiere di Siviglia. Sinfonia
TTITLE1=Il barbiere di Siviglia. Introduzione
TTITLE2=Il barbiere di Siviglia. Cavatina
TTITLE3=Il barbiere di Siviglia. Recitativo
TTITLE4=Il barbiere di Siviglia. Cavatina
TTITLE5=Il barbiere di Siviglia. Recitativo - Canzone - Recitativo
TTITLE6=Il barbiere di Siviglia. Duetto
TTITLE7=Il barbiere di Siviglia. Cavatina
EXTD=YEAR: 1983
EXTT0=Atto primo
EXTT1=Atto primo
EXTT2=Atto primo
EXTT3=Atto primo
EXTT4=Atto primo
EXTT5=Atto primo
EXTT6=Atto primo
EXTT7=Atto primo
PLAYORDER=
